<svg xmlns="http://www.w3.org/2000/svg" x="0px" y="0px" width="100" height="100" viewBox="0,0,256,256">
<g fill="#007aff" fill-rule="nonzero" stroke="none" stroke-width="1" stroke-linecap="butt" stroke-linejoin="miter" stroke-miterlimit="10" stroke-dasharray="" stroke-dashoffset="0" font-family="none" font-weight="none" font-size="none" text-anchor="none" style="mix-blend-mode: normal"><g transform="scale(5.12,5.12)"><path d="M25,5c-11.58594,0 -21,9.41406 -21,21c0,7.91797 4.39453,14.82422 10.87891,18.39844c0.48438,0.26563 1.09375,0.08984 1.35938,-0.39062c0.26563,-0.48437 0.08984,-1.09375 -0.39453,-1.36328c-5.86328,-3.23047 -9.84375,-9.46484 -9.84375,-16.64453c0,-10.50391 8.49609,-19 19,-19c10.50391,0 19,8.49609 19,19c0,7.17969 -3.98047,13.41406 -9.84375,16.64453c-0.48437,0.26953 -0.66016,0.87891 -0.39453,1.36328c0.26563,0.48047 0.875,0.65625 1.35938,0.39063c6.48438,-3.57422 10.87891,-10.48047 10.87891,-18.39844c0,-11.58594 -9.41406,-21 -21,-21zM25,9c-9.37891,0 -17,7.62109 -17,17c0,6.41016 3.55469,12 8.80859,14.89453c0.48047,0.26563 1.08984,0.08984 1.35938,-0.39453c0.26563,-0.48047 0.08984,-1.08984 -0.39453,-1.35937c-4.63281,-2.55078 -7.77344,-7.46875 -7.77344,-13.14062c0,-8.29687 6.70313,-15 15,-15c8.29688,0 15,6.70313 15,15c0,5.67188 -3.14062,10.58984 -7.77344,13.14063c-0.48437,0.26953 -0.66016,0.87891 -0.39453,1.35938c0.26953,0.48438 0.87891,0.66016 1.35938,0.39453c5.25391,-2.89453 8.80859,-8.48437 8.80859,-14.89453c0,-9.37891 -7.62109,-17 -17,-17zM25,13c-7.16797,0 -13,5.83203 -13,13c0,4.89844 2.71875,9.17578 6.73438,11.39063c0.48438,0.26563 1.09375,0.08984 1.35938,-0.39062c0.26563,-0.48437 0.08984,-1.09375 -0.39062,-1.35937c-3.39844,-1.875 -5.70312,-5.48047 -5.70312,-9.64062c0,-6.08594 4.91406,-11 11,-11c6.08594,0 11,4.91406 11,11c0,4.16016 -2.30469,7.76563 -5.70312,9.64063c-0.48047,0.26563 -0.65625,0.875 -0.39062,1.35938c0.26563,0.48047 0.875,0.65625 1.35938,0.39063c4.01563,-2.21484 6.73438,-6.49219 6.73438,-11.39062c0,-7.16797 -5.83203,-13 -13,-13zM25,17c-4.95703,0 -9,4.04297 -9,9c0,3.39063 1.88281,6.35156 4.66016,7.88672c0.31641,0.17578 0.69922,0.17188 1.00781,-0.01562c0.30859,-0.18359 0.49609,-0.51953 0.48828,-0.87891c-0.01172,-0.36328 -0.21094,-0.6875 -0.53125,-0.85937c-2.16016,-1.19141 -3.625,-3.48437 -3.625,-6.13281c0,-3.87891 3.12109,-7 7,-7c3.87891,0 7,3.12109 7,7c0,2.64844 -1.46484,4.94141 -3.625,6.13281c-0.32031,0.17188 -0.51953,0.49609 -0.53125,0.85938c-0.00781,0.35938 0.17969,0.69531 0.48828,0.87891c0.30859,0.1875 0.69141,0.19141 1.00781,0.01563c2.77734,-1.53516 4.66016,-4.49609 4.66016,-7.88672c0,-4.95703 -4.04297,-9 -9,-9zM25,21c-2.75,0 -5,2.25 -5,5c0,1.88281 1.0625,3.51953 2.59766,4.36328c0.48438,0.26953 1.09375,0.09375 1.35938,-0.39062c0.26563,-0.48437 0.08984,-1.09375 -0.39453,-1.35937c-0.92969,-0.51562 -1.5625,-1.47656 -1.5625,-2.61328c0,-1.66797 1.33203,-3 3,-3c1.66797,0 3,1.33203 3,3c0,1.13672 -0.63281,2.09766 -1.5625,2.61328c-0.48437,0.26563 -0.66016,0.875 -0.39453,1.35938c0.26563,0.48438 0.875,0.66016 1.35938,0.39063c1.53516,-0.84375 2.59766,-2.48047 2.59766,-4.36328c0,-2.75 -2.25,-5 -5,-5zM25,25c-0.55078,0 -1,0.44922 -1,1c0,0.55078 0.44922,1 1,1c0.55078,0 1,-0.44922 1,-1c0,-0.55078 -0.44922,-1 -1,-1z"></path></g></g>
</svg>